<?xml version="1.0" standalone="no"?><!DOCTYPE svg PUBLIC "-//W3C//DTD SVG 1.1//EN" "http://www.w3.org/Graphics/SVG/1.1/DTD/svg11.dtd"><svg t="1778158027183" class="icon" viewBox="0 0 1024 1024" version="1.1" xmlns="http://www.w3.org/2000/svg" p-id="13353" width="256" height="256" xmlns:xlink="http://www.w3.org/1999/xlink"><path d="M808.900602 442.113866c-11.034397-39.927093-19.890952-72.159147-41.233798-112.08624-23.230309-43.26645-48.783649-72.449526-63.883349-89.436689-31.941675-36.006979-31.360917-25.55334-71.723579-67.803464-14.518943-15.099701-62.867023-67.077517-109.037262-96.260592-5.517198-3.484546-19.019815-11.760344-24.682203-7.259472-4.791251 3.774925-1.016326 14.083375 0.145189 26.860045 1.451894 14.664132-2.032652 26.714855-8.856555 51.106679-8.275798 29.618644-19.019815 67.803464-47.186565 102.213359-15.099701 18.439058-17.422732 14.083375-72.739905 57.930583-37.458873 29.763833-56.18831 44.573155-74.772556 63.883349-10.598828 11.179586-45.153913 48.34808-72.739905 107.1498-12.195912 25.843719-31.506106 67.803464-36.297357 126.750373-4.936441 59.527666 7.404661 104.971958 11.760343 119.926469 18.729437 63.012213 52.123006 103.229685 71.4332 125.879236 40.217472 47.186565 81.45127 72.739905 96.696161 81.59646a359.198651 359.198651 0 0 0 93.356803 38.33001c28.311939 7.114282 92.340478 22.213983 170.016823 0 27.876371-7.985419 88.420363-29.618644 138.655906-84.500249 28.457128-31.070538 42.395314-60.543992 46.170239-68.81979 4.646062-10.018071 15.970837-36.732926 22.649551-87.549226 7.840229-60.398803 2.758599-107.00461-2.903788-157.240153-7.985419-69.110169-21.197657-118.184196-24.537014-130.670488z m-52.268195 354.842968c-39.927093 62.141076-104.971958 80.580134-129.363782 87.404037-69.110169 19.600573-126.605183 3.629736-156.369017-4.93644-55.897931-16.261216-91.614531-43.702019-101.051843-51.10668-19.600573-15.535269-45.87986-36.587736-63.592971-74.917746-3.774925-8.130608-18.439058-41.669367-16.261216-87.113658 3.194167-66.787138 40.653041-111.069914 52.268195-124.282153 35.281032-40.507851 76.660019-57.349825 97.276918-64.028538 8.566176 0.435568 14.664132 6.678714 14.518943 16.116026 0 9.437313-2.903789 18.729437-6.969092 27.005234-7.404661 14.664132-12.77667 37.313684-22.213983 83.483923-3.774925 18.584247-3.484546 21.923604-1.597084 23.085119 7.114282 4.210493 33.974327-25.988908 49.945164-49.364406 11.179586-16.261216 39.055957-56.623878 43.702019-113.538135 1.451894-18.148679-6.097956-64.028539-21.197657-155.35269-5.517198-33.393569-8.420987-49.799975 1.597084-58.946909 17.713111-16.261216 63.302592 1.161515 90.307825 20.616899 16.551595 11.905533 26.424476 24.682203 33.538759 34.119516a206.023802 206.023802 0 0 1 37.168494 83.629112c8.130608 41.814556 0.580758 75.062936-8.856555 114.990029-15.680458 65.480433-34.119516 79.854187-30.63497 125.588857 0.871137 11.760344 4.210493 54.010468 25.117771 60.253614 18.148679 5.372009 43.556829-17.713111 54.300847-41.669366 3.629736-8.130608 4.646062-14.518943 4.065304-74.191799-0.435568-34.990653-1.161515-62.141076 14.373754-80.144566 3.774925-4.355683 7.54985-6.823903 11.615154-6.969093 8.130608-0.290379 16.261216 8.275798 26.424477 28.02156 15.970837 31.360917 21.052467 59.963235 23.520687 75.643694 6.097956 37.749252 9.146934 56.623878 9.001745 78.111913-0.290379 29.763833-0.290379 80.870513-30.780159 128.202267z" fill="#D13C40" p-id="13354" data-spm-anchor-id="a313x.search_index.0.i8.478b3a81dAcN5f" class="selected"></path><path d="M856.087167 467.667206c-15.970837-77.240777-41.959745-128.783025-50.090353-144.463483-35.57141-67.948653-79.273429-113.828513-103.229685-138.655906-8.420987-8.711366-1.016326-0.580758-49.074028-46.170239-48.783649-46.315428-108.311315-80.580134-156.223827-127.766699-3.048978-2.903789-11.905533-11.905533-21.923604-10.453639-5.662388 0.871137-9.582502 4.791251-10.453639 5.952767-7.840229 9.437313-5.807577 23.520688-4.210493 37.168494 1.161515 9.727692 4.210493 36.878115 3.629735 54.446036-0.580758 15.680458-4.355683 26.714855-12.195912 49.074028-10.453639 30.054212-20.181331 58.075772-44.718344 81.886839-10.16326 9.872881-24.391824 20.32652-30.344591 24.682203-12.050723 8.856555-17.422732 11.905533-30.199402 20.762088 0 0-15.825648 11.034397-35.861789 27.585992-25.40815 20.907278-50.96149 46.025049-65.625623 62.721834-31.651296 36.006979-72.304336 100.616275-91.178962 184.535766-7.840229 34.990653-21.052467 97.276918-2.61341 174.372506 15.24489 64.028539 44.863534 106.859421 59.672856 127.766699 0 0 84.935817 120.362038 235.497256 161.886214 24.827393 6.823903 48.638459 9.437313 48.638459 9.437313s22.213983 2.323031 46.02505 1.306705c151.868144-6.823903 244.78938-91.904909 244.78938-91.904909 139.236664-127.47632 90.307826-364.715849 69.836116-463.88023zM517.650605 1018.951473s0-0.145189 0.145189-0.290379v0.290379z m318.54561-288.781777c-6.678714 50.816301-18.003489 77.385966-22.649551 87.549227-3.774925 8.275798-17.8583 37.749252-46.170239 68.81979-50.235543 54.881605-110.634346 76.51483-138.655906 84.500248-77.676345 22.213983-141.704884 7.114282-170.016823 0-14.518943-3.629736-51.397058-13.792996-93.356804-38.33001-15.24489-8.856555-56.478688-34.409895-96.69616-81.596459-19.310194-22.649551-52.703763-62.721834-71.4332-125.879237-4.355683-14.954511-16.696784-60.398803-11.760344-119.926469 4.936441-58.946909 24.246635-100.906654 36.297358-126.750373 27.585992-58.801719 62.141076-95.970213 72.739904-107.149799 18.439058-19.310194 37.168494-34.119516 74.772557-63.88335 55.317173-43.847208 57.640204-39.636714 72.739905-57.930582 28.166749-34.409895 38.910767-72.594715 47.186565-102.213359 6.823903-24.391824 10.16326-36.442547 8.856555-51.10668-1.161515-12.921859-4.936441-23.230309-0.14519-26.860045 5.662388-4.500872 19.165005 3.774925 24.682204 7.259472 46.170239 29.328265 94.663509 81.160892 109.037262 96.260592 40.507851 42.250124 39.781904 31.796485 71.723578 67.803464 15.099701 16.987163 40.653041 46.170239 63.88335 89.436689 21.488036 39.927093 30.344591 72.013957 41.233798 112.086241 3.484546 12.486291 16.696784 61.560318 24.537014 130.670487 5.807577 50.235543 10.889207 96.84135 2.903788 157.240153z" fill="#492A12" p-id="13355"></path><path d="M754.890134 514.853771c-10.16326-19.890952-18.293868-28.457128-26.424476-28.02156-4.065304 0.145189-7.985419 2.61341-11.615155 6.969092-15.535269 18.003489-14.809322 45.153913-14.373753 80.144566 0.725947 59.672856-0.435568 66.061191-4.065304 74.191799-10.744018 23.956256-36.152168 47.041375-54.300847 41.669366-20.907278-6.243146-24.246635-48.49327-25.117772-60.253613-3.629736-45.734671 14.954511-60.108424 30.63497-125.588857 9.582502-39.927093 17.132353-73.175473 8.856555-114.990029-3.048978-15.24489-11.615154-49.654785-37.168494-83.629112-7.114282-9.437313-16.987163-22.213983-33.538758-34.119516-27.005234-19.455384-72.739905-36.878115-90.307826-20.616899-10.018071 9.146934-7.114282 25.55334-1.597084 58.946908 15.099701 91.324152 22.649551 137.204012 21.197657 155.352691-4.646062 56.914257-32.522432 97.276918-43.702018 113.538134-16.116027 23.230309-42.976071 53.5749-49.945164 49.364407-1.887463-1.161515-2.177841-4.500872 1.597083-23.08512 9.437313-46.025049 14.809322-68.81979 22.213983-83.483922 4.210493-8.130608 6.969093-17.422732 6.969093-27.005234 0-9.437313-5.952767-15.680458-14.518943-16.116027-20.47171 6.678714-61.995887 23.520688-97.276919 64.028539-11.615154 13.212238-49.074027 57.495014-52.268194 124.282152-2.177841 45.444292 12.486291 78.837861 16.261216 87.113658 17.713111 38.33001 43.992397 59.237288 63.59297 74.917746 9.437313 7.54985 45.008723 34.845463 101.051844 51.10668 29.763833 8.711366 87.258848 24.537014 156.369016 4.936441 24.391824-6.969093 89.581879-25.40815 129.363783-87.404037 30.344591-47.331754 30.48978-98.583623 30.780159-128.202268 0.145189-21.488036-2.903789-40.362662-9.001745-78.111913-2.61341-15.680458-7.54985-44.282776-23.520687-75.643693z m-22.649551 256.549723C707.41319 813.072861 671.406212 833.68976 653.547912 842.110747c-52.558574 24.972582-101.051844 17.422732-134.735792 12.050723-19.600573-3.048978-61.995887-10.16326-106.569042-39.927094-20.762089-13.792996-52.268195-34.845463-70.997631-75.934072-13.067049-28.602318-14.083375-54.155658-14.083375-64.318917 0-38.765578 14.954511-66.496759 24.537014-84.064681 23.811067-43.121261 60.979561-76.079262 67.803464-71.28801 5.517198 3.774925-13.357428 28.747507-19.600573 76.660019-2.903789 21.923604-7.840229 58.946909 6.823903 66.787138 21.923604 11.760344 76.51483-47.476944 91.324152-69.255358 5.662388-8.275798 11.324776-17.713111 11.324775-17.713111 5.807577-10.598828 12.195912-20.616899 16.987164-32.086864 2.61341-6.388335 12.63148-28.892697 17.8583-54.010468 6.969093-34.264706 2.46822-62.431455-6.823904-117.458249-4.065304-23.665877-8.420987-43.702019-12.195912-59.237288-1.597084-4.355683-8.130608-23.811067-0.290379-30.634969 10.018071-8.566176 36.732926 9.146934 41.814556 12.486291 39.781904 26.424476 63.883349 84.645438 64.028539 144.753862 0.145189 78.257103-40.507851 90.743394-40.072283 185.406902 0.145189 61.995887 17.713111 81.015702 29.763834 88.565553 7.259472 4.500872 19.455384 9.001745 33.538758 8.566176 19.745763-0.435568 33.393569-10.30845 39.781904-15.0997 24.246635-18.003489 31.506106-44.718345 34.409895-56.043121 3.484546-13.357428 1.887463-16.696784 3.920115-63.883349 1.306705-30.63497 2.032652-46.025049 3.920114-46.170239 4.936441-0.580758 20.32652 51.832627 20.616899 110.053588 0.290379 38.620388 0.580758 78.837861-24.537013 120.942796z" fill="#492A12" p-id="13356"></path><path d="M736.160698 540.407111c-1.887463 0.145189-2.61341 15.535269-3.920115 46.170238-2.032652 47.186565-0.435568 50.525922-3.920115 63.88335-2.903789 11.324776-10.16326 38.039631-34.409895 56.04312-6.388335 4.791251-20.036141 14.664132-39.781904 15.099701-14.083375 0.290379-26.279287-4.065304-33.538758-8.566177-12.195912-7.404661-29.618644-26.569666-29.763833-88.565552-0.290379-94.518319 40.362662-107.1498 40.072283-185.406903-0.145189-59.963235-24.246635-118.329386-64.028539-144.753862-5.08163-3.339357-31.796485-21.052467-41.814556-12.486291-7.840229 6.678714-1.306705 26.134097 0.290379 30.63497 3.774925 15.535269 8.130608 35.7166 12.195912 59.237287 9.292124 54.881605 13.792996 83.193544 6.823903 117.45825-5.08163 25.117771-15.24489 47.767323-17.8583 54.010468-4.791251 11.324776-11.324776 21.342846-16.987163 32.086864 0 0-5.662388 9.437313-11.324776 17.71311-14.809322 21.778415-69.545737 81.015702-91.324151 69.255359-14.664132-7.840229-9.727692-44.863534-6.823904-66.787138 6.388335-47.912512 25.117771-72.885094 19.600573-76.66002-6.823903-4.791251-43.992397 28.166749-67.803464 71.288011-9.727692 17.422732-24.537014 45.153913-24.537013 84.06468 0 10.16326 1.016326 35.7166 14.083374 64.318918 18.729437 41.088609 50.235543 62.141076 70.997632 75.934072 44.573155 29.763833 87.113658 36.878115 106.569042 39.927093 33.683948 5.226819 82.177218 12.921859 134.735791-12.050723 17.713111-8.420987 53.865279-29.183076 78.692671-70.707252 25.117771-42.104935 24.827393-82.177218 24.537014-120.942796-0.435568-58.220962-15.680458-110.634346-20.616899-110.053588z" fill="#F7DC7E" p-id="13357" data-spm-anchor-id="a313x.search_index.0.i1.478b3a81dAcN5f" class=""></path></svg>