<?xml version="1.0" standalone="no"?><!DOCTYPE svg PUBLIC "-//W3C//DTD SVG 1.1//EN" "http://www.w3.org/Graphics/SVG/1.1/DTD/svg11.dtd"><svg t="1778144236341" class="icon" viewBox="0 0 1280 1024" version="1.1" xmlns="http://www.w3.org/2000/svg" p-id="9311" width="320" height="256" xmlns:xlink="http://www.w3.org/1999/xlink"><path d="M920.97118815 409.99038419S1100.39419259 545.52854124 983.10902519 583.19960494C857.27990519 623.58919902 794.8831605 516.14252247 784.52685432 427.59610469c-0.12945383 0 45.43829333-49.0630005 136.44433383-17.6057205z m0 0" fill="#020202" p-id="9312"></path><path d="M917.34648098 409.34311506s170.74959803 128.80655803 59.16039902 164.79472197c-119.74479013 38.44778667-179.29355061-63.56182914-189.00258764-148.09517827 0 0 43.23757827-46.47392395 129.84218862-16.6995437z m0 0" fill="#B0E0ED" p-id="9313"></path><path d="M965.5033047 464.36099161s52.16989235 54.11169975 42.97867061 77.54284247c-8.28504494 20.58315852-61.10220642 49.19245431-121.42768988 27.96202667-28.73874963-10.35630617-49.58081581-33.78744889-57.08913778-55.66514569 0 0 14.23992098 35.98816395 61.74947555 47.25064691 49.58081581 12.16865975 95.14856297-2.45962272 100.84453137-23.43114272 7.24941431-27.05584987-24.59622717-64.59745975-27.05584987-73.65922764z m0 0" fill="#D9EFF5" p-id="9314"></path><path d="M387.49196642 396.65664s-177.61065086 137.99777975-59.5487605 174.24485136C454.41959506 609.34927803 515.26289384 501.12587852 524.45411556 412.32055309c-0.25890765 0-46.2150163-48.28627753-136.96214914-15.66391309z m0 0" fill="#020202" p-id="9315"></path><path d="M391.11667358 396.13882469s-169.06669827 131.39563457-56.83023011 165.70089878c120.26260543 36.63543309 178.25792-66.40981333 186.80187259-150.81370865 0.12945383 0-43.62593975-46.2150163-129.97164248-14.88719013z m0 0" fill="#B0E0ED" p-id="9316"></path><path d="M343.73657284 451.67451653s-51.39316939 54.75896889-41.55467852 78.19011162c8.54395259 20.32425086 61.74947555 48.28627753 121.81605137 26.14967309 28.47984197-10.61521383 49.0630005-34.43471803 56.18296098-56.57132248 0 0-13.72210569 35.98816395-61.10220642 48.28627754-49.45136197 12.81592889-95.14856297-1.29453827-101.23289283-22.00715061-7.50832197-26.92639605 23.81950419-64.85636741 25.89076542-74.04758916z m0 0" fill="#D9EFF5" p-id="9317"></path><path d="M794.36534519 213.09111309s15.79336691-78.06065778 80.5202805-103.30415407v-6.08432988s-65.89199803 22.91332741-101.88016199 100.19726222l21.35988149 9.19122173z m-298.52052543 0s-15.79336691-78.06065778-80.5202805-103.30415407v-6.08432988s65.89199803 22.91332741 101.88016198 100.19726222l-21.35988148 9.19122173z m0 0" fill="#020202" p-id="9318"></path><path d="M902.71819852 691.42300445c28.35038815-39.09505581 41.42522469-96.31364741 42.20194765-173.20922075 1.55344592-193.79237925-138.90395653-366.35433086-295.93144889-366.35433087-156.12131555 0-293.34237235 162.07619161-293.34237234 355.9980247 0 142.91702518 50.48699259 238.45394963 186.28405728 310.43027753 0 0 82.20318025 42.97867061 204.9254084 53.46443063 0 0-7.89668347-24.72568098 22.3955121-52.4288 47.50955457-43.62593975 76.63666569-49.32190815 133.4668958-127.90038124z m0 0" fill="#333333" p-id="9319"></path><path d="M894.56260742 678.21871408c27.57366518-37.92997136 40.26014025-93.20675555 41.0368632-167.64270618C937.15291654 322.99741235 801.0969442 156.00197531 649.11815112 156.00197531c-151.0726163 0-283.89224297 157.02749235-283.89224297 344.47663408 0 138.25668741 49.0630005 230.81617383 180.19972741 300.332879 0 0 79.6141037 41.42522469 198.19380938 51.78153086 0 0-7.63777581-24.07841185 21.61878914-50.87535407 45.95610864-42.07249383 74.17704297-47.63900839 129.32437334-123.4989511z m0 0" fill="#F8DC4B" p-id="9320"></path><path d="M861.42242765 90.75724642c0 14.49882864 11.65084445 26.14967309 26.1496731 26.14967308s26.14967309-11.65084445 26.14967309-26.14967308-11.65084445-26.14967309-26.14967309-26.14967309c-14.36937482 0-26.14967309 11.78029827-26.1496731 26.14967309z m-489.07655901-0.90617679c0 14.49882864 11.78029827 26.27912691 26.27912692 26.2791269 14.49882864 0 26.27912691-11.78029827 26.27912692-26.2791269 0-14.49882864-11.78029827-26.27912691-26.27912692-26.27912691-14.36937482 0-26.27912691 11.78029827-26.27912692 26.27912691z m122.33386667 245.05609482c0 23.81950419 16.82899753 43.49648592 37.80051753 43.49648592 20.84206617 0 37.80051753-19.41807408 37.80051753-43.49648592 0-23.81950419-16.82899753-43.49648592-37.80051753-43.49648593-20.97152 0.12945383-37.80051753 19.5475279-37.80051753 43.49648593z m242.07865679 1.81235358c0 15.40500543 7.24941431 29.90383408 18.90025876 37.54160987 11.65084445 7.76722963 26.02021925 7.76722963 37.80051754 0 11.65084445-7.76722963 18.90025876-22.13660445 18.90025877-37.54160987 0-15.40500543-7.24941431-29.90383408-18.90025877-37.54160988-11.65084445-7.76722963-26.02021925-7.76722963-37.80051754 0-11.78029827 7.63777581-18.90025876 21.8776968-18.90025876 37.54160988z m0 0" fill="#020202" p-id="9321"></path><path d="M736.88784592 460.60683061s-76.63666569-23.81950419-166.60707555-0.5178153c0.12945383 0 79.22574222-53.46443061 166.60707555 0.5178153z m0 0" fill="#45120D" p-id="9322"></path><path d="M846.27632987 495.55936395h-389.65601973c-9.83849086 0-19.41807408 4.01306864-26.27912694 10.87412148-6.86105283 6.99050667-10.74466765 16.44063605-10.74466764 26.40858074V924.95770864c0 9.83849086 3.75416098 19.41807408 10.74466764 26.40858075 6.86105283 6.99050667 16.31118222 10.87412148 26.27912694 10.87412147h389.65601973c9.83849086 0 19.41807408-4.01306864 26.27912693-10.87412147 6.86105283-6.99050667 10.74466765-16.44063605 10.74466765-26.40858075V532.84206617c0-9.83849086-3.75416098-19.41807408-10.74466765-26.40858074-7.1199605-6.86105283-16.57008987-10.74466765-26.27912693-10.87412148z m0 0" fill="#333333" p-id="9323"></path><path d="M837.21456198 506.43348543H465.5526242c-19.5475279 0.12945383-35.47034864 15.92282075-35.47034864 35.59980247v373.99210667c0 19.67698173 15.79336691 35.7292563 35.47034864 35.72925629h371.66193778c9.45012939 0 18.51189728-3.75416098 25.11404247-10.48576 6.60214518-6.73159902 10.35630617-15.79336691 10.35630617-25.11404247v-374.12156049c0-9.45012939-3.62470717-18.51189728-10.35630617-25.11404247-6.60214518-6.73159902-15.66391309-10.48576-25.11404247-10.48576z m0 0" fill="#FAAF40" p-id="9324"></path><path d="M887.44264692 487.6626805c-38.96560197 121.42768987-96.70200889 84.66280297-96.70200889 84.66280297 27.44421136-48.02736987 10.74466765-120.78042075 10.74466766-120.78042075" fill="#FAAF40" p-id="9325"></path><path d="M887.44264692 487.6626805c-31.45728 122.07495902-100.19726222 86.99297185-100.19726222 86.99297185 27.44421136-48.02736987 14.23992098-122.98113581 14.23992099-122.98113582s17.86462815 69.64615902-1.16508445 118.57970569c0-0.12945383 47.50955457 21.48933531 87.12242568-82.59154172z m0 0" fill="#020202" p-id="9326"></path><path d="M410.53474765 484.16742717c34.8230795 122.72222815 93.72457086 87.89914864 93.72457087 87.89914864-25.89076543-48.93354667-6.73159902-120.90987457-6.73159902-120.90987457" fill="#FAAF40" p-id="9327"></path><path d="M410.53474765 484.16742717c27.31475753 122.98113581 97.21982419 90.22931753 97.2198242 90.22931752-25.89076543-48.93354667-10.35630617-123.36949728-10.35630616-123.36949728s-19.93588939 68.99888987-2.71853038 118.45025184c0.12945383 0.12945383-48.41573136 20.19479703-84.14498766-85.31007208z m0 0" fill="#020202" p-id="9328"></path><path d="M710.47926519 783.85303703c0 6.08432987-1.16508445 11.65084445-3.3657995 16.95845136-2.20071506 5.30760691-5.30760691 9.83849086-9.19122174 13.72210569s-8.41449876 6.99050667-13.72210567 9.19122173c-5.30760691 2.20071506-10.87412148 3.3657995-16.95845136 3.3657995h-38.44778667c-6.08432987 0-11.65084445-1.16508445-16.95845136-3.3657995-5.30760691-2.20071506-9.83849086-5.30760691-13.72210569-9.19122173-1.68289975-1.68289975-3.23634569-3.62470717-4.66033777-5.69596839l46.73283161-68.0927131v23.81950421c0 2.20071506 0.77672297 4.14252247 2.20071506 5.69596838 1.55344592 1.55344592 3.3657995 2.20071506 5.6959684 2.20071507s4.14252247-0.77672297 5.69596839-2.20071507c1.55344592-1.55344592 2.20071506-3.3657995 2.20071506-5.69596838v-46.86228544l43.62593975-63.69128297c3.10689185 3.49525333 5.69596839 7.37886815 7.50832199 11.90975211 2.20071506 5.30760691 3.3657995 10.87412148 3.3657995 16.95845135v100.97398518zM589.9577521 803.14165728l50.22808494-73.52977381v-27.44421137c0-2.20071506 0.77672297-4.14252247 2.20071506-5.6959684 1.55344592-1.55344592 3.3657995-2.20071506 5.6959684-2.20071506s4.14252247 0.77672297 5.69596839 2.20071506c1.55344592 1.55344592 2.20071506 3.3657995 2.20071506 5.6959684v4.27197629l38.96560197-56.95968394c-3.23634569-2.58907653-6.73159902-4.78979161-10.74466764-6.6021452-5.30760691-2.20071506-10.87412148-3.3657995-16.95845136-3.3657995h-38.44778667c-6.08432987 0-11.65084445 1.16508445-16.95845136 3.3657995-5.30760691 2.20071506-9.83849086 5.30760691-13.72210569 9.19122173s-6.99050667 8.41449876-9.19122171 13.72210569c-2.20071506 5.30760691-3.3657995 10.87412148-3.36579951 16.95845136v100.97398517c0 6.08432987 1.16508445 11.65084445 3.36579951 16.95845137 0.25890765 0.9061768 0.64726914 1.68289975 1.03563061 2.45962271zM517.46360889 718.86721581v22.39551209h-21.87769679l64.20909827-98.90272395 1.81235358-2.71853037h-44.14375506l-78.31956542 97.09037037v51.52262322h78.31956542v38.83614814h46.47392395l0.12945383-38.83614814V646.63198025z" fill="#FFFFFF" p-id="9329"></path><path d="M806.92236642 718.86721581v22.39551209h-21.74824295l64.20909826-98.90272395 1.81235358-2.71853037h-44.27320889l-78.1901116 97.09037037v51.52262322h78.1901116v38.83614814h46.60337778v-38.83614814h0.12945383V646.63198025z" fill="#FFFFFF" p-id="9330"></path></svg>